<svg xmlns="http://www.w3.org/2000/svg" width="14.236" height="14.236" viewBox="0 0 14.236 14.236">
  <path id="Icon_ionic-logo-whatsapp" data-name="Icon ionic-logo-whatsapp" d="M9.5,2.25A6.962,6.962,0,0,0,2.508,9.185a6.863,6.863,0,0,0,1,3.581L2.25,16.486l3.869-1.229A7,7,0,0,0,16.486,9.185,6.962,6.962,0,0,0,9.5,2.25Zm3.475,9.569a1.805,1.805,0,0,1-1.236.8c-.328.017-.337.254-2.124-.522A7.292,7.292,0,0,1,6.666,9.307,3.427,3.427,0,0,1,6.007,7.45,1.98,1.98,0,0,1,6.687,6a.684.684,0,0,1,.484-.2c.141,0,.232,0,.336,0s.26-.022.4.338.459,1.244.5,1.334a.324.324,0,0,1,0,.311,1.214,1.214,0,0,1-.189.289c-.093.1-.2.224-.279.3s-.19.177-.092.358a5.348,5.348,0,0,0,.946,1.263,4.876,4.876,0,0,0,1.4.932c.175.1.28.085.389-.03s.465-.5.591-.673.243-.139.4-.074,1.022.526,1.2.621.292.144.334.219A1.468,1.468,0,0,1,12.973,11.819Z" transform="translate(-2.25 -2.25)" fill="#543000"/>
</svg>
