<svg xmlns="http://www.w3.org/2000/svg" width="14.244" height="14.241" viewBox="0 0 14.244 14.241">
  <path id="Icon_awesome-instagram" data-name="Icon awesome-instagram" d="M7.119,5.707A3.651,3.651,0,1,0,10.77,9.358,3.645,3.645,0,0,0,7.119,5.707Zm0,6.025A2.374,2.374,0,1,1,9.492,9.358a2.378,2.378,0,0,1-2.374,2.374Zm4.652-6.174a.852.852,0,1,1-.852-.852A.85.85,0,0,1,11.771,5.558Zm2.418.864a4.215,4.215,0,0,0-1.15-2.984,4.242,4.242,0,0,0-2.984-1.15c-1.176-.067-4.7-.067-5.876,0A4.236,4.236,0,0,0,1.2,3.435,4.228,4.228,0,0,0,.045,6.419c-.067,1.176-.067,4.7,0,5.876A4.215,4.215,0,0,0,1.2,15.278a4.248,4.248,0,0,0,2.984,1.15c1.176.067,4.7.067,5.876,0a4.215,4.215,0,0,0,2.984-1.15,4.242,4.242,0,0,0,1.15-2.984c.067-1.176.067-4.7,0-5.873ZM12.67,13.556a2.4,2.4,0,0,1-1.354,1.354,15.7,15.7,0,0,1-4.2.286,15.817,15.817,0,0,1-4.2-.286,2.4,2.4,0,0,1-1.354-1.354,15.7,15.7,0,0,1-.286-4.2,15.817,15.817,0,0,1,.286-4.2A2.4,2.4,0,0,1,2.921,3.807a15.7,15.7,0,0,1,4.2-.286,15.817,15.817,0,0,1,4.2.286A2.4,2.4,0,0,1,12.67,5.16a15.7,15.7,0,0,1,.286,4.2A15.686,15.686,0,0,1,12.67,13.556Z" transform="translate(0.005 -2.238)" fill="#543000"/>
</svg>
