<svg xmlns="http://www.w3.org/2000/svg" width="16.185" height="12.141" viewBox="0 0 16.185 12.141">
  <path id="Icon_ionic-logo-youtube" data-name="Icon ionic-logo-youtube" d="M16.079,7.181a2.458,2.458,0,0,0-2.34-2.567C11.988,4.532,10.2,4.5,8.378,4.5H7.809c-1.821,0-3.611.032-5.362.114A2.463,2.463,0,0,0,.11,7.187C.031,8.313,0,9.438,0,10.564s.032,2.251.107,3.38A2.466,2.466,0,0,0,2.444,16.52c1.84.085,3.727.123,5.647.12s3.8-.032,5.647-.12a2.466,2.466,0,0,0,2.34-2.577c.076-1.129.111-2.254.107-3.383S16.155,8.31,16.079,7.181ZM6.544,13.665V7.453l4.584,3.1Z" transform="translate(0 -4.5)" fill="#543000"/>
</svg>
